<svg width="88" height="31" viewBox="0 0 88 31" fill="none" xmlns="http://www.w3.org/2000/svg">
<rect x="0.55" y="1.05391" width="86.9" height="28.6" rx="14.3" fill="#0098FF" fill-opacity="0.2" stroke="#73C6FF" stroke-width="1.1"/>
<path d="M15.8807 8.80469C12.333 8.80469 9.4469 11.7654 9.4469 15.4047C9.4469 19.044 12.333 22.0047 15.8807 22.0047C19.4283 22.0047 22.3144 19.044 22.3144 15.4047C22.3144 11.7654 19.4283 8.80469 15.8807 8.80469ZM18.9968 13.3422L15.3204 18.0565C15.2387 18.161 15.1175 18.225 14.9869 18.2323C14.9784 18.2328 14.9701 18.2332 14.9616 18.2332C14.8399 18.2332 14.723 18.184 14.6366 18.0952L12.7984 16.2094C12.6189 16.0253 12.6189 15.727 12.7984 15.5428C12.9779 15.3587 13.2687 15.3587 13.4483 15.5428L14.9234 17.0561L18.2792 12.7529C18.4376 12.5503 18.7276 12.5167 18.925 12.6792C19.1234 12.8422 19.1555 13.1387 18.9968 13.3422Z" fill="#73C6FF"/>
<path d="M31.5946 20.5039V11.0637H27.8986V9.72391H36.8152V11.0637H33.1192V20.5039H31.5946ZM41.619 20.5963C40.7464 20.5963 39.9764 20.4166 39.309 20.0573C38.652 19.698 38.1386 19.2052 37.769 18.5789C37.4097 17.9526 37.23 17.234 37.23 16.4229C37.23 15.6118 37.4046 14.8932 37.7536 14.2669C38.113 13.6406 38.6006 13.153 39.2166 12.8039C39.8429 12.4446 40.5462 12.2649 41.3264 12.2649C42.117 12.2649 42.8151 12.4394 43.4208 12.7885C44.0266 13.1376 44.4988 13.6304 44.8376 14.2669C45.1867 14.8932 45.3612 15.6272 45.3612 16.4691C45.3612 16.5307 45.3561 16.6026 45.3458 16.6847C45.3458 16.7668 45.3407 16.8438 45.3304 16.9157H38.385V15.8531H44.5604L43.9598 16.2227C43.9701 15.6991 43.8623 15.232 43.6364 14.8213C43.4106 14.4106 43.0974 14.0924 42.697 13.8665C42.3069 13.6304 41.85 13.5123 41.3264 13.5123C40.8131 13.5123 40.3562 13.6304 39.9558 13.8665C39.5554 14.0924 39.2423 14.4158 39.0164 14.8367C38.7906 15.2474 38.6776 15.7196 38.6776 16.2535V16.4999C38.6776 17.044 38.8008 17.5317 39.0472 17.9629C39.3039 18.3838 39.6581 18.7124 40.1098 18.9485C40.5616 19.1846 41.08 19.3027 41.6652 19.3027C42.1478 19.3027 42.5841 19.2206 42.9742 19.0563C43.3746 18.892 43.7237 18.6456 44.0214 18.3171L44.8376 19.2719C44.468 19.7031 44.006 20.0316 43.4516 20.2575C42.9075 20.4834 42.2966 20.5963 41.619 20.5963ZM50.3049 20.5963C49.6273 20.5963 48.9805 20.5039 48.3645 20.3191C47.7588 20.1343 47.2814 19.9084 46.9323 19.6415L47.5483 18.4711C47.8974 18.7072 48.3286 18.9074 48.8419 19.0717C49.3553 19.236 49.8789 19.3181 50.4127 19.3181C51.1006 19.3181 51.5934 19.2206 51.8911 19.0255C52.1991 18.8304 52.3531 18.5584 52.3531 18.2093C52.3531 17.9526 52.2607 17.7524 52.0759 17.6087C51.8911 17.465 51.6447 17.3572 51.3367 17.2853C51.039 17.2134 50.7053 17.1518 50.3357 17.1005C49.9661 17.0389 49.5965 16.967 49.2269 16.8849C48.8573 16.7925 48.5185 16.6693 48.2105 16.5153C47.9025 16.351 47.6561 16.1303 47.4713 15.8531C47.2865 15.5656 47.1941 15.1858 47.1941 14.7135C47.1941 14.2207 47.3327 13.7895 47.6099 13.4199C47.8871 13.0503 48.2773 12.768 48.7803 12.5729C49.2937 12.3676 49.8994 12.2649 50.5975 12.2649C51.1314 12.2649 51.6704 12.3316 52.2145 12.4651C52.7689 12.5883 53.2207 12.768 53.5697 13.0041L52.9383 14.1745C52.5687 13.9281 52.1837 13.7587 51.7833 13.6663C51.3829 13.5739 50.9825 13.5277 50.5821 13.5277C49.9353 13.5277 49.4528 13.6355 49.1345 13.8511C48.8163 14.0564 48.6571 14.3234 48.6571 14.6519C48.6571 14.9291 48.7495 15.1447 48.9343 15.2987C49.1294 15.4424 49.3758 15.5554 49.6735 15.6375C49.9815 15.7196 50.3203 15.7915 50.6899 15.8531C51.0595 15.9044 51.4291 15.9763 51.7987 16.0687C52.1683 16.1508 52.502 16.2689 52.7997 16.4229C53.1077 16.5769 53.3541 16.7925 53.5389 17.0697C53.734 17.3469 53.8315 17.7165 53.8315 18.1785C53.8315 18.6713 53.6878 19.0974 53.4003 19.4567C53.1129 19.816 52.7073 20.0984 52.1837 20.3037C51.6601 20.4988 51.0339 20.5963 50.3049 20.5963ZM59.032 20.5963C58.2106 20.5963 57.5741 20.3756 57.1224 19.9341C56.6706 19.4926 56.4448 18.8612 56.4448 18.0399V10.5555H57.9232V17.9783C57.9232 18.4198 58.031 18.7586 58.2466 18.9947C58.4724 19.2308 58.7907 19.3489 59.2014 19.3489C59.6634 19.3489 60.0484 19.2206 60.3564 18.9639L60.8184 20.0265C60.5925 20.2216 60.3204 20.3653 60.0022 20.4577C59.6942 20.5501 59.3708 20.5963 59.032 20.5963ZM55.0588 13.5585V12.3419H60.264V13.5585H55.0588ZM66.5194 20.5963C65.6468 20.5963 64.8768 20.4166 64.2094 20.0573C63.5524 19.698 63.039 19.2052 62.6694 18.5789C62.3101 17.9526 62.1304 17.234 62.1304 16.4229C62.1304 15.6118 62.305 14.8932 62.654 14.2669C63.0134 13.6406 63.501 13.153 64.117 12.8039C64.7433 12.4446 65.4466 12.2649 66.2268 12.2649C67.0174 12.2649 67.7155 12.4394 68.3212 12.7885C68.927 13.1376 69.3992 13.6304 69.738 14.2669C70.0871 14.8932 70.2616 15.6272 70.2616 16.4691C70.2616 16.5307 70.2565 16.6026 70.2462 16.6847C70.2462 16.7668 70.2411 16.8438 70.2308 16.9157H63.2854V15.8531H69.4608L68.8602 16.2227C68.8705 15.6991 68.7627 15.232 68.5368 14.8213C68.311 14.4106 67.9978 14.0924 67.5974 13.8665C67.2073 13.6304 66.7504 13.5123 66.2268 13.5123C65.7135 13.5123 65.2566 13.6304 64.8562 13.8665C64.4558 14.0924 64.1427 14.4158 63.9168 14.8367C63.691 15.2474 63.578 15.7196 63.578 16.2535V16.4999C63.578 17.044 63.7012 17.5317 63.9476 17.9629C64.2043 18.3838 64.5585 18.7124 65.0102 18.9485C65.462 19.1846 65.9804 19.3027 66.5656 19.3027C67.0482 19.3027 67.4845 19.2206 67.8746 19.0563C68.275 18.892 68.6241 18.6456 68.9218 18.3171L69.738 19.2719C69.3684 19.7031 68.9064 20.0316 68.352 20.2575C67.8079 20.4834 67.197 20.5963 66.5194 20.5963ZM76.2371 20.5963C75.4466 20.5963 74.7382 20.4218 74.1119 20.0727C73.4959 19.7236 73.0083 19.236 72.6489 18.6097C72.2896 17.9834 72.1099 17.2545 72.1099 16.4229C72.1099 15.5913 72.2896 14.8675 72.6489 14.2515C73.0083 13.6252 73.4959 13.1376 74.1119 12.7885C74.7382 12.4394 75.4466 12.2649 76.2371 12.2649C76.925 12.2649 77.5461 12.4189 78.1005 12.7269C78.6549 13.0349 79.0964 13.4969 79.4249 14.1129C79.7637 14.7289 79.9331 15.4989 79.9331 16.4229C79.9331 17.3469 79.7689 18.1169 79.4403 18.7329C79.1221 19.3489 78.6857 19.816 78.1313 20.1343C77.5769 20.4423 76.9455 20.5963 76.2371 20.5963ZM76.3603 19.3027C76.8737 19.3027 77.3357 19.1846 77.7463 18.9485C78.1673 18.7124 78.4958 18.3787 78.7319 17.9475C78.9783 17.506 79.1015 16.9978 79.1015 16.4229C79.1015 15.8377 78.9783 15.3346 78.7319 14.9137C78.4958 14.4825 78.1673 14.1488 77.7463 13.9127C77.3357 13.6766 76.8737 13.5585 76.3603 13.5585C75.8367 13.5585 75.3696 13.6766 74.9589 13.9127C74.5483 14.1488 74.2197 14.4825 73.9733 14.9137C73.7269 15.3346 73.6037 15.8377 73.6037 16.4229C73.6037 16.9978 73.7269 17.506 73.9733 17.9475C74.2197 18.3787 74.5483 18.7124 74.9589 18.9485C75.3696 19.1846 75.8367 19.3027 76.3603 19.3027ZM79.1477 20.5039V18.3017L79.2401 16.4075L79.0861 14.5133V9.07711H80.5645V20.5039H79.1477Z" fill="#73C6FF"/>
</svg>
