<svg width="82" height="28" viewBox="0 0 82 28" fill="none" xmlns="http://www.w3.org/2000/svg">
<rect x="0.697739" y="0.765659" width="79.8927" height="26.2938" rx="13.1469" fill="#0098FF" fill-opacity="0.2" stroke="#73C6FF" stroke-width="1.0113"/>
<path d="M12.6819 8.35034C9.29828 8.35034 6.54557 11.0723 6.54557 14.4181C6.54557 17.764 9.29828 20.4859 12.6819 20.4859C16.0656 20.4859 18.8183 17.764 18.8183 14.4181C18.8183 11.0723 16.0656 8.35034 12.6819 8.35034ZM15.654 12.522L12.1475 16.8561C12.0696 16.9522 11.954 17.011 11.8295 17.0178C11.8214 17.0182 11.8134 17.0186 11.8053 17.0186C11.6893 17.0186 11.5778 16.9733 11.4954 16.8917L9.74216 15.158C9.57095 14.9887 9.57095 14.7144 9.74216 14.5451C9.91337 14.3758 10.1907 14.3758 10.362 14.5451L11.7689 15.9364L14.9696 11.9802C15.1207 11.794 15.3972 11.7631 15.5855 11.9125C15.7747 12.0623 15.8053 12.3349 15.654 12.522Z" fill="#73C6FF"/>
<path d="M29.3534 19.3164V10.6374H25.9555V9.40567H34.1531V10.6374H30.7551V19.3164H29.3534ZM38.5696 19.4014C37.7673 19.4014 37.0594 19.2362 36.4459 18.9058C35.8418 18.5755 35.3698 18.1224 35.03 17.5466C34.6997 16.9709 34.5345 16.3102 34.5345 15.5645C34.5345 14.8188 34.695 14.1581 35.0159 13.5823C35.3462 13.0066 35.7946 12.5582 36.3609 12.2373C36.9367 11.907 37.5832 11.7418 38.3006 11.7418C39.0274 11.7418 39.6692 11.9022 40.2261 12.2232C40.783 12.5441 41.2172 12.9971 41.5286 13.5823C41.8496 14.1581 42.01 14.833 42.01 15.607C42.01 15.6636 42.0053 15.7297 41.9959 15.8052C41.9959 15.8807 41.9911 15.9515 41.9817 16.0175H35.5964V15.0406H41.2738L40.7216 15.3804C40.7311 14.8991 40.632 14.4696 40.4243 14.092C40.2167 13.7145 39.9288 13.4219 39.5607 13.2142C39.202 12.9971 38.782 12.8886 38.3006 12.8886C37.8286 12.8886 37.4086 12.9971 37.0405 13.2142C36.6724 13.4219 36.3845 13.7192 36.1768 14.1062C35.9692 14.4837 35.8654 14.9179 35.8654 15.4087V15.6353C35.8654 16.1355 35.9786 16.5839 36.2052 16.9803C36.4411 17.3673 36.7668 17.6693 37.1821 17.8864C37.5974 18.1035 38.074 18.2121 38.6121 18.2121C39.0557 18.2121 39.4568 18.1366 39.8155 17.9855C40.1836 17.8345 40.5045 17.608 40.7783 17.3059L41.5286 18.1838C41.1888 18.5802 40.7641 18.8822 40.2544 19.0899C39.7541 19.2975 39.1925 19.4014 38.5696 19.4014ZM46.5551 19.4014C45.9321 19.4014 45.3375 19.3164 44.7711 19.1465C44.2142 18.9766 43.7753 18.769 43.4544 18.5235L44.0208 17.4475C44.3417 17.6646 44.7381 17.8487 45.21 17.9997C45.682 18.1507 46.1634 18.2262 46.6542 18.2262C47.2866 18.2262 47.7396 18.1366 48.0134 17.9572C48.2965 17.7779 48.4381 17.5278 48.4381 17.2068C48.4381 16.9709 48.3532 16.7868 48.1833 16.6547C48.0134 16.5225 47.7868 16.4234 47.5037 16.3573C47.2299 16.2913 46.9232 16.2346 46.5834 16.1874C46.2436 16.1308 45.9038 16.0647 45.564 15.9892C45.2242 15.9043 44.9127 15.791 44.6296 15.6494C44.3464 15.4984 44.1199 15.2955 43.95 15.0406C43.7801 14.7763 43.6951 14.4271 43.6951 13.9929C43.6951 13.5399 43.8225 13.1434 44.0774 12.8036C44.3322 12.4638 44.6909 12.2043 45.1534 12.0249C45.6253 11.8362 46.1822 11.7418 46.8241 11.7418C47.3149 11.7418 47.8104 11.8031 48.3107 11.9258C48.8204 12.0391 49.2357 12.2043 49.5566 12.4214L48.9761 13.4974C48.6363 13.2709 48.2824 13.1151 47.9143 13.0302C47.5461 12.9452 47.178 12.9027 46.8099 12.9027C46.2153 12.9027 45.7716 13.0019 45.479 13.2001C45.1864 13.3888 45.0401 13.6343 45.0401 13.9363C45.0401 14.1911 45.1251 14.3894 45.295 14.5309C45.4743 14.6631 45.7009 14.7669 45.9746 14.8424C46.2577 14.9179 46.5692 14.984 46.909 15.0406C47.2488 15.0878 47.5886 15.1539 47.9284 15.2388C48.2682 15.3144 48.575 15.4229 48.8487 15.5645C49.1319 15.7061 49.3584 15.9043 49.5283 16.1591C49.7076 16.414 49.7973 16.7538 49.7973 17.1785C49.7973 17.6316 49.6652 18.0233 49.4009 18.3536C49.1366 18.684 48.7637 18.9436 48.2824 19.1323C47.801 19.3117 47.2252 19.4014 46.5551 19.4014ZM54.5784 19.4014C53.8233 19.4014 53.2381 19.1984 52.8228 18.7926C52.4075 18.3867 52.1998 17.8062 52.1998 17.0511V10.1702H53.559V16.9945C53.559 17.4003 53.6581 17.7118 53.8563 17.9289C54.064 18.146 54.3566 18.2545 54.7341 18.2545C55.1589 18.2545 55.5128 18.1366 55.796 17.9006L56.2207 18.8775C56.0131 19.0568 55.763 19.189 55.4704 19.2739C55.1872 19.3589 54.8899 19.4014 54.5784 19.4014ZM50.9256 12.9311V11.8126H55.711V12.9311H50.9256ZM61.4621 19.4014C60.6598 19.4014 59.9519 19.2362 59.3384 18.9058C58.7343 18.5755 58.2623 18.1224 57.9225 17.5466C57.5922 16.9709 57.427 16.3102 57.427 15.5645C57.427 14.8188 57.5875 14.1581 57.9084 13.5823C58.2387 13.0066 58.6871 12.5582 59.2534 12.2373C59.8292 11.907 60.4757 11.7418 61.1931 11.7418C61.9199 11.7418 62.5617 11.9022 63.1186 12.2232C63.6755 12.5441 64.1097 12.9971 64.4211 13.5823C64.7421 14.1581 64.9025 14.833 64.9025 15.607C64.9025 15.6636 64.8978 15.7297 64.8884 15.8052C64.8884 15.8807 64.8836 15.9515 64.8742 16.0175H58.4889V15.0406H64.1663L63.6141 15.3804C63.6236 14.8991 63.5245 14.4696 63.3168 14.092C63.1092 13.7145 62.8213 13.4219 62.4532 13.2142C62.0945 12.9971 61.6745 12.8886 61.1931 12.8886C60.7211 12.8886 60.3011 12.9971 59.933 13.2142C59.5649 13.4219 59.277 13.7192 59.0693 14.1062C58.8617 14.4837 58.7579 14.9179 58.7579 15.4087V15.6353C58.7579 16.1355 58.8711 16.5839 59.0977 16.9803C59.3336 17.3673 59.6593 17.6693 60.0746 17.8864C60.4899 18.1035 60.9665 18.2121 61.5046 18.2121C61.9482 18.2121 62.3493 18.1366 62.708 17.9855C63.0761 17.8345 63.397 17.608 63.6708 17.3059L64.4211 18.1838C64.0813 18.5802 63.6566 18.8822 63.1469 19.0899C62.6466 19.2975 62.085 19.4014 61.4621 19.4014ZM70.3962 19.4014C69.6694 19.4014 69.0181 19.2409 68.4423 18.92C67.876 18.5991 67.4277 18.1507 67.0973 17.5749C66.7669 16.9992 66.6018 16.329 66.6018 15.5645C66.6018 14.7999 66.7669 14.1345 67.0973 13.5682C67.4277 12.9924 67.876 12.5441 68.4423 12.2232C69.0181 11.9022 69.6694 11.7418 70.3962 11.7418C71.0286 11.7418 71.5996 11.8834 72.1093 12.1665C72.619 12.4497 73.0249 12.8744 73.3269 13.4408C73.6384 14.0071 73.7941 14.715 73.7941 15.5645C73.7941 16.414 73.6431 17.1219 73.3411 17.6882C73.0485 18.2545 72.6473 18.684 72.1376 18.9766C71.6279 19.2598 71.0474 19.4014 70.3962 19.4014ZM70.5094 18.2121C70.9814 18.2121 71.4061 18.1035 71.7837 17.8864C72.1707 17.6693 72.4727 17.3626 72.6898 16.9661C72.9163 16.5603 73.0296 16.0931 73.0296 15.5645C73.0296 15.0265 72.9163 14.564 72.6898 14.177C72.4727 13.7806 72.1707 13.4738 71.7837 13.2567C71.4061 13.0396 70.9814 12.9311 70.5094 12.9311C70.0281 12.9311 69.5986 13.0396 69.221 13.2567C68.8435 13.4738 68.5414 13.7806 68.3149 14.177C68.0884 14.564 67.9751 15.0265 67.9751 15.5645C67.9751 16.0931 68.0884 16.5603 68.3149 16.9661C68.5414 17.3626 68.8435 17.6693 69.221 17.8864C69.5986 18.1035 70.0281 18.2121 70.5094 18.2121ZM73.0721 19.3164V17.2918L73.157 15.5503L73.0154 13.8089V8.81103H74.3746V19.3164H73.0721Z" fill="#73C6FF"/>
</svg>
